<svg width="22" height="22" viewBox="0 0 22 22" fill="none" xmlns="http://www.w3.org/2000/svg">
<path d="M7.33337 5.27075C6.95754 5.27075 6.64587 4.95909 6.64587 4.58325V1.83325C6.64587 1.45742 6.95754 1.14575 7.33337 1.14575C7.70921 1.14575 8.02087 1.45742 8.02087 1.83325V4.58325C8.02087 4.95909 7.70921 5.27075 7.33337 5.27075Z" fill="#73788B"/>
<path d="M14.6666 5.27075C14.2908 5.27075 13.9791 4.95909 13.9791 4.58325V1.83325C13.9791 1.45742 14.2908 1.14575 14.6666 1.14575C15.0425 1.14575 15.3541 1.45742 15.3541 1.83325V4.58325C15.3541 4.95909 15.0425 5.27075 14.6666 5.27075Z" fill="#73788B"/>
<path d="M7.79167 13.2916C7.6725 13.2916 7.55333 13.2641 7.44333 13.2183C7.32417 13.1725 7.2325 13.1083 7.14083 13.0258C6.97583 12.8516 6.875 12.6225 6.875 12.375C6.875 12.2558 6.9025 12.1366 6.94834 12.0266C6.99417 11.9166 7.05833 11.8158 7.14083 11.7241C7.2325 11.6416 7.32417 11.5774 7.44333 11.5316C7.77333 11.3941 8.18583 11.4675 8.4425 11.7241C8.6075 11.8983 8.70833 12.1366 8.70833 12.375C8.70833 12.43 8.69917 12.4941 8.69 12.5583C8.68083 12.6133 8.6625 12.6683 8.635 12.7233C8.61666 12.7783 8.58917 12.8333 8.5525 12.8883C8.525 12.9341 8.47917 12.98 8.4425 13.0258C8.26833 13.1908 8.03 13.2916 7.79167 13.2916Z" fill="#73788B"/>
<path d="M11 13.2916C10.8809 13.2916 10.7617 13.2641 10.6517 13.2182C10.5325 13.1724 10.4409 13.1082 10.3492 13.0257C10.1842 12.8515 10.0834 12.6224 10.0834 12.3749C10.0834 12.2557 10.1109 12.1365 10.1567 12.0265C10.2025 11.9165 10.2667 11.8157 10.3492 11.7241C10.4409 11.6416 10.5325 11.5774 10.6517 11.5315C10.9817 11.3849 11.3942 11.4674 11.6509 11.7241C11.8159 11.8982 11.9167 12.1366 11.9167 12.3749C11.9167 12.4299 11.9075 12.4941 11.8984 12.5582C11.8892 12.6132 11.8709 12.6682 11.8434 12.7232C11.825 12.7782 11.7975 12.8332 11.7609 12.8882C11.7334 12.934 11.6875 12.9799 11.6509 13.0257C11.4767 13.1907 11.2384 13.2916 11 13.2916Z" fill="#73788B"/>
<path d="M14.2083 13.2916C14.0891 13.2916 13.97 13.2641 13.86 13.2182C13.7408 13.1724 13.6491 13.1082 13.5575 13.0257C13.5208 12.9799 13.4841 12.934 13.4475 12.8882C13.4108 12.8332 13.3833 12.7782 13.365 12.7232C13.3375 12.6682 13.3191 12.6132 13.31 12.5582C13.3008 12.4941 13.2916 12.4299 13.2916 12.3749C13.2916 12.1366 13.3925 11.8982 13.5575 11.7241C13.6491 11.6416 13.7408 11.5774 13.86 11.5315C14.1991 11.3849 14.6025 11.4674 14.8591 11.7241C15.0241 11.8982 15.125 12.1366 15.125 12.3749C15.125 12.4299 15.1158 12.4941 15.1066 12.5582C15.0975 12.6132 15.0791 12.6682 15.0516 12.7232C15.0333 12.7782 15.0058 12.8332 14.9691 12.8882C14.9416 12.934 14.8958 12.9799 14.8591 13.0257C14.685 13.1907 14.4466 13.2916 14.2083 13.2916Z" fill="#73788B"/>
<path d="M7.79167 16.5001C7.6725 16.5001 7.55333 16.4726 7.44333 16.4268C7.33333 16.3809 7.2325 16.3167 7.14083 16.2342C6.97583 16.0601 6.875 15.8218 6.875 15.5834C6.875 15.4643 6.9025 15.3451 6.94834 15.2351C6.99417 15.1159 7.05833 15.0151 7.14083 14.9326C7.48 14.5934 8.10333 14.5934 8.4425 14.9326C8.6075 15.1068 8.70833 15.3451 8.70833 15.5834C8.70833 15.8218 8.6075 16.0601 8.4425 16.2342C8.26833 16.3992 8.03 16.5001 7.79167 16.5001Z" fill="#73788B"/>
<path d="M11 16.5001C10.7617 16.5001 10.5234 16.3992 10.3492 16.2342C10.1842 16.0601 10.0834 15.8218 10.0834 15.5834C10.0834 15.4643 10.1109 15.3451 10.1567 15.2351C10.2025 15.1159 10.2667 15.0151 10.3492 14.9326C10.6884 14.5934 11.3117 14.5934 11.6509 14.9326C11.7334 15.0151 11.7975 15.1159 11.8434 15.2351C11.8892 15.3451 11.9167 15.4643 11.9167 15.5834C11.9167 15.8218 11.8159 16.0601 11.6509 16.2342C11.4767 16.3992 11.2384 16.5001 11 16.5001Z" fill="#73788B"/>
<path d="M14.2083 16.4999C13.97 16.4999 13.7316 16.3991 13.5575 16.2341C13.475 16.1516 13.4108 16.0508 13.365 15.9316C13.3191 15.8216 13.2916 15.7024 13.2916 15.5833C13.2916 15.4641 13.3191 15.3449 13.365 15.2349C13.4108 15.1157 13.475 15.0149 13.5575 14.9324C13.7683 14.7216 14.0891 14.6207 14.3825 14.6849C14.4466 14.6941 14.5016 14.7124 14.5566 14.7399C14.6116 14.7582 14.6666 14.7858 14.7216 14.8224C14.7675 14.8499 14.8133 14.8958 14.8591 14.9324C15.0241 15.1066 15.125 15.3449 15.125 15.5833C15.125 15.8216 15.0241 16.0599 14.8591 16.2341C14.685 16.3991 14.4466 16.4999 14.2083 16.4999Z" fill="#73788B"/>
<path d="M18.7917 9.02002H3.20837C2.83254 9.02002 2.52087 8.70835 2.52087 8.33252C2.52087 7.95669 2.83254 7.64502 3.20837 7.64502H18.7917C19.1675 7.64502 19.4792 7.95669 19.4792 8.33252C19.4792 8.70835 19.1675 9.02002 18.7917 9.02002Z" fill="#73788B"/>
<path d="M14.6667 20.8541H7.33333C3.9875 20.8541 2.0625 18.9291 2.0625 15.5833V7.79158C2.0625 4.44575 3.9875 2.52075 7.33333 2.52075H14.6667C18.0125 2.52075 19.9375 4.44575 19.9375 7.79158V15.5833C19.9375 18.9291 18.0125 20.8541 14.6667 20.8541ZM7.33333 3.89575C4.71167 3.89575 3.4375 5.16992 3.4375 7.79158V15.5833C3.4375 18.2049 4.71167 19.4791 7.33333 19.4791H14.6667C17.2883 19.4791 18.5625 18.2049 18.5625 15.5833V7.79158C18.5625 5.16992 17.2883 3.89575 14.6667 3.89575H7.33333Z" fill="#73788B"/>
</svg>
